<?xml version="1.0" encoding="UTF-8" standalone="no"?>
<!-- Created with Inkscape (http://www.inkscape.org/) -->

<svg
   width="16"
   height="16"
   viewBox="0 0 16 16"
   version="1.1"
   id="svg1"
   xmlns="http://www.w3.org/2000/svg"
   xmlns:svg="http://www.w3.org/2000/svg">
  <defs
     id="defs1">&#10;	&#10;	&#10;&#10;		&#10;	</defs>
  <g
     id="layer1"
     transform="translate(-23.283332,-93.662494)">
    <g
       id="g25"
       style="fill:#000000"
       transform="matrix(0.06218505,0,0,0.06218505,-10.117164,68.081541)">&#10;				<path
   class="st0"
   d="m 792.43,578.6 c -17.51,-30.14 -34.89,-60.35 -52.3,-90.54 -2.9,-5.04 -7.17,-7.47 -12.98,-7.46 -46.45,0.02 -114.27,0.01 -161.4,0.01 -0.62,0 -1.1,0.21 -1.29,0.85 -0.2,0.63 0.09,1.08 0.6,1.41 2.1,1.38 3.52,3.32 4.75,5.46 17.41,30.23 34.91,60.43 52.31,90.67 3.29,5.71 2.22,12.43 -2.61,16.81 -0.57,0.51 -1.2,0.93 -1.8,1.4 -0.83,0.59 -0.43,2 0.57,2.08 55.16,-0.23 110.44,0.63 165.57,-0.3 8.58,-1.79 13.56,-11.83 8.58,-20.39 z m -57.89,-12.26 c -9.09,12.48 -24.07,18.35 -39.22,18.23 -9.15,-0.01 -18.3,0 -27.45,0 -4.49,-0.01 -7.15,-2.68 -7.15,-7.16 0,-24.94 0,-49.89 0,-74.83 0,-4.6 2.69,-7.29 7.3,-7.29 9.19,0 18.39,-0.04 27.58,0.02 10.58,0.07 20.5,2.55 29.24,8.75 20,13.42 23.93,43.26 9.7,62.28 z M 621.82,550.48 c 0.01,-16.07 0.01,-32.13 0.01,-48.2 0,-4.22 2.75,-6.97 6.97,-6.98 4.2,-0.02 8.39,-0.02 12.59,0 4.16,0.01 6.91,2.75 6.91,6.91 0.05,22.34 -0.01,54.55 0.01,77.21 0,3.01 -1.49,4.85 -4.21,5.15 -2.16,0.24 -3.65,-0.8 -4.7,-2.62 -2.92,-5.09 -5.85,-10.17 -8.78,-15.25 -2.75,-4.78 -5.5,-9.55 -8.27,-14.31 -0.35,-0.6 -0.53,-1.2 -0.53,-1.91 z"
   id="path1"
   style="fill:#000000" />
&#10;				<path
   class="st0"
   d="m 556.71,571.44 c -2.92,-0.09 -6.65,0.25 -10.35,-0.13 -7.17,-0.74 -11.47,-8.61 -8.05,-14.97 3.33,-6.19 6.84,-12.28 10.53,-18.26 4,-6.47 13.5,-6.42 17.47,0.07 3.63,5.92 7.1,11.94 10.41,18.05 3.75,6.9 -1.29,15.07 -9.26,15.23 -3.33,0.07 -6.65,0.01 -10.75,0.01 z"
   id="path2"
   style="fill:#000000" />
&#10;				&#10;				&#10;				&#10;				&#10;				&#10;				&#10;				&#10;				&#10;				&#10;				&#10;				&#10;				&#10;				&#10;				&#10;				&#10;				&#10;				&#10;				&#10;				&#10;				&#10;				&#10;				&#10;				<path
   class="st0"
   d="m 685.6,539.92 c 0,-5.2 -0.01,-10.39 0,-15.59 0,-2.75 1.39,-4.16 4.11,-4.14 4.27,0.03 8.56,-0.29 12.77,0.72 7.45,1.79 13.09,5.8 14.94,13.54 2.85,11.88 -2.96,22.56 -16.54,24.85 -3.89,0.65 -7.81,0.45 -11.72,0.42 -2.15,-0.01 -3.55,-1.62 -3.56,-3.85 -0.01,-5.32 0,-10.64 0,-15.95 z"
   id="path25"
   style="fill:#000000" />
&#10;			</g>
  </g>
</svg>
